<svg width="769" height="187" viewBox="0 0 769 187" fill="none" xmlns="http://www.w3.org/2000/svg">
<path d="M422.925 93.5002L425.713 95.1461C435.628 101.024 445.852 105.805 457.161 107.843L460.57 108.548V78.6092H450.577C443.684 78.6092 436.79 79.7848 430.283 82.0577L412.855 88.1708C416.341 89.895 419.594 91.5409 422.925 93.5002Z" fill="#151516"/>
<path d="M159.875 3.8405V34.4847H216.187L218.511 48.8271C220.293 60.1129 224.088 71.0069 229.588 80.9604L230.75 83.0765C232.531 86.2898 234.545 89.895 236.482 93.5002L240.742 81.6657C244.46 71.242 246.396 60.348 246.396 49.219V34.4847H302.709V3.8405H159.875Z" fill="#151516"/>
<path d="M650.42 3.8405V33.9361C650.42 34.1712 650.42 34.4063 650.42 34.6414L652.667 48.8271C654.448 60.1129 658.244 71.0069 663.743 80.9604L664.905 83.0765C666.687 86.2898 668.701 89.895 670.637 93.5002L674.82 81.9008C678.693 71.242 680.629 60.0345 680.629 48.7487V3.8405H650.42Z" fill="#151516"/>
<path d="M102.168 82.6849C96.9009 81.1174 91.4013 80.6472 85.9792 81.3525L71.6493 83.1551C72.6563 84.2523 73.6632 85.3496 74.5927 86.6036C76.0645 88.4845 77.6911 91.306 79.0079 93.3437L80.0923 95.0679C83.9653 101.103 87.3734 106.511 93.1828 110.899L94.8869 112.232L97.9853 113.329C106.428 116.307 112.548 124.145 112.702 133.158C113.012 150.086 98.6824 159.413 74.5153 159.413C47.4822 159.413 34.3142 152.829 31.0609 131.12H0C2.47868 167.172 29.3568 187 76.1419 187C118.357 187 144.538 165.604 144.538 131.277C144.538 102.357 127.884 90.5223 102.168 82.6849Z" fill="#151516"/>
<path d="M580.708 93.5002L583.497 95.1461C593.412 101.024 603.636 105.805 614.945 107.843L618.353 108.548V78.6092H608.361C601.467 78.6092 594.574 79.7848 588.067 82.0577L570.639 88.1708C574.202 89.895 577.455 91.5409 580.708 93.5002Z" fill="#151516"/>
<path d="M72.3467 0.000244141C30.1317 0.000244141 4.95757 19.6721 4.95757 52.6675C4.95757 79.5497 19.9846 91.149 42.2152 98.5946C47.3275 100.319 52.8271 100.789 58.1717 99.9269L71.9594 97.8108C71.4946 97.2622 70.9524 96.7136 70.4876 96.0866C69.0159 94.2056 66.15 89.5816 64.8332 87.5438L63.7487 85.8196C59.8758 79.7848 56.4676 74.377 50.6582 69.9881L48.9541 68.7341C49.0316 68.7341 49.109 68.8125 49.109 68.8125C40.9759 65.1289 36.4833 60.0346 36.4833 50.7081C36.4833 35.8955 50.5033 27.0392 72.1143 27.0392C92.8732 27.0392 106.738 34.7199 109.682 52.2756H139.968C136.173 18.9667 111.696 0.000244141 72.3467 0.000244141Z" fill="#151516"/>
<path d="M246.396 152.437L244.15 138.095C242.368 126.809 238.573 115.915 233.073 105.962L231.911 103.846C230.13 100.632 228.116 97.1054 226.179 93.5002L221.919 105.335C218.123 115.758 216.264 126.731 216.264 137.86V183.552H246.473V152.437C246.396 152.437 246.396 152.437 246.396 152.437Z" fill="#151516"/>
<path d="M365.14 108.626H374.823C381.949 108.626 389.075 107.372 395.736 104.943L412.855 98.7512C409.369 97.1054 406.116 95.4595 402.785 93.5002L399.997 91.8543C390.082 85.9763 379.857 81.5874 368.548 79.5496L365.14 78.8443H365.837C365.682 78.8443 365.605 78.8443 365.45 78.8443H365.14V34.4847H459.795V3.8405H334.776V183.552H460.492V153.143H365.14V108.626Z" fill="#151516"/>
<path d="M523.001 108.626H532.684C539.81 108.626 546.936 107.372 553.598 104.943L570.716 98.7512C567.23 97.1054 563.977 95.4595 560.646 93.5002L557.858 91.8543C547.943 85.9763 537.719 81.5874 526.41 79.5496L523.001 78.8443H523.699C523.544 78.8443 523.466 78.8443 523.311 78.8443H523.001V34.4847H617.656V3.8405H492.638V183.552H618.353V153.143H523.001V108.626Z" fill="#151516"/>
<path d="M680.784 153.064C680.784 152.829 680.784 152.594 680.784 152.359L678.46 138.095C676.679 126.809 672.883 115.915 667.384 105.962L666.145 103.846C664.363 100.632 662.349 97.1054 660.413 93.5002L656.307 104.943C652.434 115.523 650.498 126.731 650.498 138.095V183.552H768.777V153.143H680.784V153.064Z" fill="#151516"/>
<path d="M93.2609 110.899C87.4515 106.588 84.0434 101.102 80.1704 95.0672L79.086 93.343C77.7692 91.3053 76.1426 88.4838 74.6709 86.6028C73.0442 84.4867 71.2627 82.6841 69.4037 80.7248C64.6012 75.944 58.2492 71.4772 48.9541 68.7341L50.6586 70.0659C56.468 74.3765 59.8762 79.8627 63.7492 85.8975L64.8336 87.6217C66.1504 89.6594 68.9389 94.2835 70.4881 96.1644C72.1147 98.2805 73.8963 100.083 75.7553 101.964C80.4802 106.745 85.5925 109.566 94.965 112.309L93.2609 110.899Z" fill="#5D7361"/>
<path d="M242.214 105.805C240.742 101.808 238.65 97.654 236.482 93.5002C234.545 89.895 232.531 86.2898 230.75 83.0765L229.588 80.9604C224.088 71.0069 220.293 60.1129 218.511 48.8271L216.187 34.4847L216.265 48.6704C216.265 60.113 216.575 70.4583 220.448 81.1172C221.92 85.1142 223.933 89.3464 226.179 93.5002C228.116 97.1054 230.13 100.632 231.911 103.846L233.073 105.962C238.573 115.915 242.368 126.809 244.15 138.095L246.396 152.437L246.397 138.252C246.397 126.887 246.087 116.542 242.214 105.805Z" fill="#5D7361"/>
<path d="M457.162 107.921C445.853 105.883 435.628 101.181 425.713 95.2241L422.925 93.5783C419.594 91.6189 416.341 89.8947 412.855 88.3272C409.06 86.5246 405.264 85.1139 401.236 83.7032C391.089 80.1763 380.09 78.9223 369.401 78.9223L365.14 78.8443L368.548 79.5496C379.857 81.5874 390.159 85.9763 399.997 91.8543L402.785 93.5002C406.116 95.4595 409.369 97.1838 412.855 98.7512C416.65 100.554 420.446 101.964 424.474 103.375C434.621 106.902 445.543 108.548 456.31 108.548L460.57 108.626L457.162 107.921Z" fill="#5D7361"/>
<path d="M614.945 107.921C603.636 105.883 593.412 101.181 583.497 95.2241L580.709 93.5783C577.378 91.6189 574.125 89.8947 570.639 88.3272C566.844 86.5246 563.048 85.1139 559.02 83.7032C548.873 80.1763 537.874 78.9223 527.185 78.9223L522.924 78.844L526.333 79.5493C537.642 81.5871 547.944 85.976 557.781 91.854L560.569 93.4999C563.9 95.4592 567.153 97.1835 570.639 98.7509C574.434 100.554 578.23 101.964 582.258 103.375C592.405 106.902 603.327 108.548 614.093 108.548L618.354 108.626L614.945 107.921Z" fill="#5D7361"/>
<path d="M680.708 138.252C680.708 126.809 680.398 116.464 676.525 105.805C675.053 101.808 673.039 97.654 670.793 93.5002C668.856 89.895 666.843 86.2898 665.061 83.0765L663.899 80.9604C658.4 71.0069 654.604 60.113 652.823 48.8271L650.499 34.4847V48.6704C650.499 60.113 650.809 70.4583 654.682 81.1172C656.153 85.1142 658.166 89.3464 660.413 93.5002C662.349 97.1054 664.363 100.632 666.145 103.846L667.307 105.962C672.807 115.915 676.602 126.809 678.384 138.095L680.708 152.437V138.252Z" fill="#5D7361"/>
</svg>
